<mxfile host="app.diagrams.net" agent="Mozilla/5.0 (Macintosh; Intel Mac OS X 10_15_7) AppleWebKit/537.36 (KHTML, like Gecko) Chrome/135.0.0.0 Safari/537.36" version="26.2.15">
  <diagram name="Page-1" id="xpCchcG-yW71qQUOjffo">
    <mxGraphModel dx="1720" dy="1065" grid="1" gridSize="10" guides="1" tooltips="1" connect="1" arrows="1" fold="1" page="1" pageScale="1" pageWidth="827" pageHeight="1169" math="0" shadow="0">
      <root>
        <mxCell id="0" />
        <mxCell id="1" parent="0" />
        <mxCell id="_swf-YN51xJU9q3pGjbW-5" value="" style="rounded=1;whiteSpace=wrap;html=1;fillColor=none;" vertex="1" parent="1">
          <mxGeometry x="90" y="90" width="140" height="140" as="geometry" />
        </mxCell>
        <mxCell id="_swf-YN51xJU9q3pGjbW-6" value="" style="group" vertex="1" connectable="0" parent="1">
          <mxGeometry x="120" y="120" width="80" height="80" as="geometry" />
        </mxCell>
        <mxCell id="_swf-YN51xJU9q3pGjbW-13" value="" style="group" vertex="1" connectable="0" parent="_swf-YN51xJU9q3pGjbW-6">
          <mxGeometry width="80" height="80" as="geometry" />
        </mxCell>
        <mxCell id="_swf-YN51xJU9q3pGjbW-1" value="" style="endArrow=oval;html=1;rounded=0;startArrow=oval;startFill=1;endFill=1;" edge="1" parent="_swf-YN51xJU9q3pGjbW-13">
          <mxGeometry width="50" height="50" relative="1" as="geometry">
            <mxPoint as="sourcePoint" />
            <mxPoint x="80" as="targetPoint" />
          </mxGeometry>
        </mxCell>
        <mxCell id="_swf-YN51xJU9q3pGjbW-2" value="" style="endArrow=oval;html=1;rounded=0;startArrow=oval;startFill=1;endFill=1;" edge="1" parent="_swf-YN51xJU9q3pGjbW-13">
          <mxGeometry width="50" height="50" relative="1" as="geometry">
            <mxPoint y="80" as="sourcePoint" />
            <mxPoint x="80" y="80" as="targetPoint" />
          </mxGeometry>
        </mxCell>
        <mxCell id="_swf-YN51xJU9q3pGjbW-3" value="" style="endArrow=none;html=1;rounded=0;" edge="1" parent="_swf-YN51xJU9q3pGjbW-13">
          <mxGeometry width="50" height="50" relative="1" as="geometry">
            <mxPoint y="80" as="sourcePoint" />
            <mxPoint as="targetPoint" />
          </mxGeometry>
        </mxCell>
        <mxCell id="_swf-YN51xJU9q3pGjbW-4" value="" style="endArrow=none;html=1;rounded=0;" edge="1" parent="_swf-YN51xJU9q3pGjbW-13">
          <mxGeometry width="50" height="50" relative="1" as="geometry">
            <mxPoint x="80" y="80" as="sourcePoint" />
            <mxPoint x="80" as="targetPoint" />
          </mxGeometry>
        </mxCell>
        <mxCell id="_swf-YN51xJU9q3pGjbW-12" value="" style="endArrow=none;html=1;rounded=0;" edge="1" parent="_swf-YN51xJU9q3pGjbW-13">
          <mxGeometry width="50" height="50" relative="1" as="geometry">
            <mxPoint y="80" as="sourcePoint" />
            <mxPoint x="80" as="targetPoint" />
          </mxGeometry>
        </mxCell>
        <mxCell id="_swf-YN51xJU9q3pGjbW-14" value="" style="group" vertex="1" connectable="0" parent="1">
          <mxGeometry x="270" y="170" width="80" height="80" as="geometry" />
        </mxCell>
        <mxCell id="_swf-YN51xJU9q3pGjbW-15" value="" style="endArrow=oval;html=1;rounded=0;startArrow=oval;startFill=1;endFill=1;" edge="1" parent="_swf-YN51xJU9q3pGjbW-14">
          <mxGeometry width="50" height="50" relative="1" as="geometry">
            <mxPoint as="sourcePoint" />
            <mxPoint x="80" as="targetPoint" />
          </mxGeometry>
        </mxCell>
        <mxCell id="_swf-YN51xJU9q3pGjbW-16" value="" style="endArrow=oval;html=1;rounded=0;startArrow=oval;startFill=1;endFill=1;" edge="1" parent="_swf-YN51xJU9q3pGjbW-14">
          <mxGeometry width="50" height="50" relative="1" as="geometry">
            <mxPoint y="80" as="sourcePoint" />
            <mxPoint x="80" y="80" as="targetPoint" />
          </mxGeometry>
        </mxCell>
        <mxCell id="_swf-YN51xJU9q3pGjbW-19" value="" style="endArrow=none;html=1;rounded=0;" edge="1" parent="_swf-YN51xJU9q3pGjbW-14">
          <mxGeometry width="50" height="50" relative="1" as="geometry">
            <mxPoint y="80" as="sourcePoint" />
            <mxPoint x="80" as="targetPoint" />
          </mxGeometry>
        </mxCell>
        <mxCell id="_swf-YN51xJU9q3pGjbW-20" value="" style="group" vertex="1" connectable="0" parent="1">
          <mxGeometry x="270" y="70" width="80" height="80" as="geometry" />
        </mxCell>
        <mxCell id="_swf-YN51xJU9q3pGjbW-22" value="" style="endArrow=oval;html=1;rounded=0;startArrow=oval;startFill=1;endFill=1;" edge="1" parent="_swf-YN51xJU9q3pGjbW-20">
          <mxGeometry width="50" height="50" relative="1" as="geometry">
            <mxPoint y="80" as="sourcePoint" />
            <mxPoint x="80" y="80" as="targetPoint" />
          </mxGeometry>
        </mxCell>
        <mxCell id="_swf-YN51xJU9q3pGjbW-23" value="" style="endArrow=oval;html=1;rounded=0;endFill=1;" edge="1" parent="_swf-YN51xJU9q3pGjbW-20">
          <mxGeometry width="50" height="50" relative="1" as="geometry">
            <mxPoint y="80" as="sourcePoint" />
            <mxPoint as="targetPoint" />
          </mxGeometry>
        </mxCell>
        <mxCell id="_swf-YN51xJU9q3pGjbW-24" value="" style="endArrow=oval;html=1;rounded=0;endFill=1;" edge="1" parent="_swf-YN51xJU9q3pGjbW-20">
          <mxGeometry width="50" height="50" relative="1" as="geometry">
            <mxPoint x="80" y="80" as="sourcePoint" />
            <mxPoint x="80" as="targetPoint" />
          </mxGeometry>
        </mxCell>
        <mxCell id="_swf-YN51xJU9q3pGjbW-26" value="" style="group" vertex="1" connectable="0" parent="1">
          <mxGeometry x="390" y="170" width="80" height="80" as="geometry" />
        </mxCell>
        <mxCell id="_swf-YN51xJU9q3pGjbW-29" value="" style="endArrow=oval;html=1;rounded=0;startArrow=oval;startFill=1;endFill=1;" edge="1" parent="_swf-YN51xJU9q3pGjbW-26">
          <mxGeometry width="50" height="50" relative="1" as="geometry">
            <mxPoint y="80" as="sourcePoint" />
            <mxPoint as="targetPoint" />
          </mxGeometry>
        </mxCell>
        <mxCell id="_swf-YN51xJU9q3pGjbW-30" value="" style="endArrow=oval;html=1;rounded=0;startArrow=oval;startFill=1;endFill=1;" edge="1" parent="_swf-YN51xJU9q3pGjbW-26">
          <mxGeometry width="50" height="50" relative="1" as="geometry">
            <mxPoint x="80" y="80" as="sourcePoint" />
            <mxPoint x="80" as="targetPoint" />
          </mxGeometry>
        </mxCell>
        <mxCell id="_swf-YN51xJU9q3pGjbW-31" value="" style="endArrow=none;html=1;rounded=0;" edge="1" parent="_swf-YN51xJU9q3pGjbW-26">
          <mxGeometry width="50" height="50" relative="1" as="geometry">
            <mxPoint y="80" as="sourcePoint" />
            <mxPoint x="80" as="targetPoint" />
          </mxGeometry>
        </mxCell>
        <mxCell id="_swf-YN51xJU9q3pGjbW-32" value="" style="group" vertex="1" connectable="0" parent="1">
          <mxGeometry x="390" y="70" width="80" height="80" as="geometry" />
        </mxCell>
        <mxCell id="_swf-YN51xJU9q3pGjbW-33" value="" style="endArrow=oval;html=1;rounded=0;startArrow=oval;startFill=1;endFill=1;" edge="1" parent="_swf-YN51xJU9q3pGjbW-32">
          <mxGeometry width="50" height="50" relative="1" as="geometry">
            <mxPoint as="sourcePoint" />
            <mxPoint x="80" as="targetPoint" />
          </mxGeometry>
        </mxCell>
        <mxCell id="_swf-YN51xJU9q3pGjbW-34" value="" style="endArrow=oval;html=1;rounded=0;startArrow=oval;startFill=1;endFill=1;" edge="1" parent="_swf-YN51xJU9q3pGjbW-32">
          <mxGeometry width="50" height="50" relative="1" as="geometry">
            <mxPoint y="80" as="sourcePoint" />
            <mxPoint x="80" y="80" as="targetPoint" />
          </mxGeometry>
        </mxCell>
        <mxCell id="_swf-YN51xJU9q3pGjbW-35" value="" style="endArrow=none;html=1;rounded=0;" edge="1" parent="_swf-YN51xJU9q3pGjbW-32">
          <mxGeometry width="50" height="50" relative="1" as="geometry">
            <mxPoint y="80" as="sourcePoint" />
            <mxPoint as="targetPoint" />
          </mxGeometry>
        </mxCell>
        <mxCell id="_swf-YN51xJU9q3pGjbW-38" value="" style="group" vertex="1" connectable="0" parent="1">
          <mxGeometry x="510" y="170" width="80" height="80" as="geometry" />
        </mxCell>
        <mxCell id="_swf-YN51xJU9q3pGjbW-40" value="" style="endArrow=oval;html=1;rounded=0;startArrow=oval;startFill=1;endFill=1;" edge="1" parent="_swf-YN51xJU9q3pGjbW-38">
          <mxGeometry width="50" height="50" relative="1" as="geometry">
            <mxPoint y="80" as="sourcePoint" />
            <mxPoint x="80" y="80" as="targetPoint" />
          </mxGeometry>
        </mxCell>
        <mxCell id="_swf-YN51xJU9q3pGjbW-41" value="" style="endArrow=oval;html=1;rounded=0;endFill=1;" edge="1" parent="_swf-YN51xJU9q3pGjbW-38">
          <mxGeometry width="50" height="50" relative="1" as="geometry">
            <mxPoint y="80" as="sourcePoint" />
            <mxPoint as="targetPoint" />
          </mxGeometry>
        </mxCell>
        <mxCell id="_swf-YN51xJU9q3pGjbW-43" value="" style="endArrow=oval;html=1;rounded=0;endFill=1;" edge="1" parent="_swf-YN51xJU9q3pGjbW-38">
          <mxGeometry width="50" height="50" relative="1" as="geometry">
            <mxPoint y="80" as="sourcePoint" />
            <mxPoint x="80" as="targetPoint" />
          </mxGeometry>
        </mxCell>
        <mxCell id="_swf-YN51xJU9q3pGjbW-44" value="" style="group" vertex="1" connectable="0" parent="1">
          <mxGeometry x="510" y="70" width="80" height="80" as="geometry" />
        </mxCell>
        <mxCell id="_swf-YN51xJU9q3pGjbW-45" value="" style="endArrow=oval;html=1;rounded=0;startArrow=oval;startFill=1;endFill=1;" edge="1" parent="_swf-YN51xJU9q3pGjbW-44">
          <mxGeometry width="50" height="50" relative="1" as="geometry">
            <mxPoint as="sourcePoint" />
            <mxPoint x="80" as="targetPoint" />
          </mxGeometry>
        </mxCell>
        <mxCell id="_swf-YN51xJU9q3pGjbW-47" value="" style="endArrow=none;html=1;rounded=0;startArrow=oval;startFill=1;" edge="1" parent="_swf-YN51xJU9q3pGjbW-44">
          <mxGeometry width="50" height="50" relative="1" as="geometry">
            <mxPoint y="80" as="sourcePoint" />
            <mxPoint as="targetPoint" />
          </mxGeometry>
        </mxCell>
        <mxCell id="_swf-YN51xJU9q3pGjbW-48" value="" style="endArrow=none;html=1;rounded=0;startArrow=oval;startFill=1;" edge="1" parent="_swf-YN51xJU9q3pGjbW-44">
          <mxGeometry width="50" height="50" relative="1" as="geometry">
            <mxPoint x="80" y="80" as="sourcePoint" />
            <mxPoint x="80" as="targetPoint" />
          </mxGeometry>
        </mxCell>
        <mxCell id="_swf-YN51xJU9q3pGjbW-50" value="" style="group" vertex="1" connectable="0" parent="1">
          <mxGeometry x="630" y="170" width="80" height="80" as="geometry" />
        </mxCell>
        <mxCell id="_swf-YN51xJU9q3pGjbW-51" value="" style="endArrow=oval;html=1;rounded=0;startArrow=oval;startFill=1;endFill=1;" edge="1" parent="_swf-YN51xJU9q3pGjbW-50">
          <mxGeometry width="50" height="50" relative="1" as="geometry">
            <mxPoint as="sourcePoint" />
            <mxPoint x="80" as="targetPoint" />
          </mxGeometry>
        </mxCell>
        <mxCell id="_swf-YN51xJU9q3pGjbW-54" value="" style="endArrow=none;html=1;rounded=0;startArrow=oval;startFill=1;" edge="1" parent="_swf-YN51xJU9q3pGjbW-50">
          <mxGeometry width="50" height="50" relative="1" as="geometry">
            <mxPoint x="80" y="80" as="sourcePoint" />
            <mxPoint x="80" as="targetPoint" />
          </mxGeometry>
        </mxCell>
        <mxCell id="_swf-YN51xJU9q3pGjbW-55" value="" style="endArrow=none;html=1;rounded=0;startArrow=oval;startFill=1;" edge="1" parent="_swf-YN51xJU9q3pGjbW-50">
          <mxGeometry width="50" height="50" relative="1" as="geometry">
            <mxPoint y="80" as="sourcePoint" />
            <mxPoint x="80" as="targetPoint" />
          </mxGeometry>
        </mxCell>
        <mxCell id="_swf-YN51xJU9q3pGjbW-56" value="" style="group" vertex="1" connectable="0" parent="1">
          <mxGeometry x="630" y="70" width="80" height="80" as="geometry" />
        </mxCell>
        <mxCell id="_swf-YN51xJU9q3pGjbW-57" value="" style="endArrow=oval;html=1;rounded=0;startArrow=oval;startFill=1;endFill=1;" edge="1" parent="_swf-YN51xJU9q3pGjbW-56">
          <mxGeometry width="50" height="50" relative="1" as="geometry">
            <mxPoint as="sourcePoint" />
            <mxPoint x="80" as="targetPoint" />
          </mxGeometry>
        </mxCell>
        <mxCell id="_swf-YN51xJU9q3pGjbW-58" value="" style="endArrow=oval;html=1;rounded=0;startArrow=oval;startFill=1;endFill=1;" edge="1" parent="_swf-YN51xJU9q3pGjbW-56">
          <mxGeometry width="50" height="50" relative="1" as="geometry">
            <mxPoint y="80" as="sourcePoint" />
            <mxPoint x="80" y="80" as="targetPoint" />
          </mxGeometry>
        </mxCell>
        <mxCell id="_swf-YN51xJU9q3pGjbW-60" value="" style="endArrow=none;html=1;rounded=0;" edge="1" parent="_swf-YN51xJU9q3pGjbW-56">
          <mxGeometry width="50" height="50" relative="1" as="geometry">
            <mxPoint x="80" y="80" as="sourcePoint" />
            <mxPoint x="80" as="targetPoint" />
          </mxGeometry>
        </mxCell>
        <mxCell id="_swf-YN51xJU9q3pGjbW-76" value="" style="rounded=1;whiteSpace=wrap;html=1;fillColor=none;" vertex="1" parent="1">
          <mxGeometry x="799" y="60" width="140" height="200" as="geometry" />
        </mxCell>
        <mxCell id="_swf-YN51xJU9q3pGjbW-77" value="" style="group" vertex="1" connectable="0" parent="1">
          <mxGeometry x="827" y="80" width="80" height="160" as="geometry" />
        </mxCell>
        <mxCell id="_swf-YN51xJU9q3pGjbW-71" value="" style="endArrow=oval;html=1;rounded=0;startArrow=oval;startFill=1;endFill=1;" edge="1" parent="_swf-YN51xJU9q3pGjbW-77">
          <mxGeometry width="50" height="50" relative="1" as="geometry">
            <mxPoint x="80" as="sourcePoint" />
            <mxPoint x="80" y="80" as="targetPoint" />
          </mxGeometry>
        </mxCell>
        <mxCell id="_swf-YN51xJU9q3pGjbW-72" value="" style="endArrow=oval;html=1;rounded=0;startArrow=oval;startFill=1;endFill=1;" edge="1" parent="_swf-YN51xJU9q3pGjbW-77">
          <mxGeometry width="50" height="50" relative="1" as="geometry">
            <mxPoint y="160" as="sourcePoint" />
            <mxPoint x="80" y="160" as="targetPoint" />
          </mxGeometry>
        </mxCell>
        <mxCell id="_swf-YN51xJU9q3pGjbW-74" value="" style="endArrow=none;html=1;rounded=0;" edge="1" parent="_swf-YN51xJU9q3pGjbW-77">
          <mxGeometry width="50" height="50" relative="1" as="geometry">
            <mxPoint x="80" y="160" as="sourcePoint" />
            <mxPoint x="80" y="80" as="targetPoint" />
          </mxGeometry>
        </mxCell>
        <mxCell id="_swf-YN51xJU9q3pGjbW-75" value="" style="endArrow=none;html=1;rounded=0;" edge="1" parent="_swf-YN51xJU9q3pGjbW-77">
          <mxGeometry width="50" height="50" relative="1" as="geometry">
            <mxPoint y="160" as="sourcePoint" />
            <mxPoint x="80" y="80" as="targetPoint" />
          </mxGeometry>
        </mxCell>
        <mxCell id="_swf-YN51xJU9q3pGjbW-79" value="" style="group" vertex="1" connectable="0" parent="1">
          <mxGeometry x="980" y="80" width="80" height="160" as="geometry" />
        </mxCell>
        <mxCell id="_swf-YN51xJU9q3pGjbW-80" value="" style="endArrow=oval;html=1;rounded=0;startArrow=oval;startFill=1;endFill=1;" edge="1" parent="_swf-YN51xJU9q3pGjbW-79">
          <mxGeometry width="50" height="50" relative="1" as="geometry">
            <mxPoint x="80" as="sourcePoint" />
            <mxPoint x="80" y="80" as="targetPoint" />
          </mxGeometry>
        </mxCell>
        <mxCell id="_swf-YN51xJU9q3pGjbW-81" value="" style="endArrow=oval;html=1;rounded=0;startArrow=oval;startFill=1;endFill=1;" edge="1" parent="_swf-YN51xJU9q3pGjbW-79">
          <mxGeometry width="50" height="50" relative="1" as="geometry">
            <mxPoint y="160" as="sourcePoint" />
            <mxPoint x="80" y="160" as="targetPoint" />
          </mxGeometry>
        </mxCell>
        <mxCell id="_swf-YN51xJU9q3pGjbW-82" value="" style="endArrow=none;html=1;rounded=0;" edge="1" parent="_swf-YN51xJU9q3pGjbW-79">
          <mxGeometry width="50" height="50" relative="1" as="geometry">
            <mxPoint x="80" y="160" as="sourcePoint" />
            <mxPoint x="80" y="80" as="targetPoint" />
          </mxGeometry>
        </mxCell>
        <mxCell id="_swf-YN51xJU9q3pGjbW-84" value="" style="group" vertex="1" connectable="0" parent="1">
          <mxGeometry x="1100" y="80" width="80" height="160" as="geometry" />
        </mxCell>
        <mxCell id="_swf-YN51xJU9q3pGjbW-85" value="" style="endArrow=oval;html=1;rounded=0;startArrow=oval;startFill=1;endFill=1;" edge="1" parent="_swf-YN51xJU9q3pGjbW-84">
          <mxGeometry width="50" height="50" relative="1" as="geometry">
            <mxPoint x="80" as="sourcePoint" />
            <mxPoint x="80" y="80" as="targetPoint" />
          </mxGeometry>
        </mxCell>
        <mxCell id="_swf-YN51xJU9q3pGjbW-87" value="" style="endArrow=none;html=1;rounded=0;startArrow=oval;startFill=1;" edge="1" parent="_swf-YN51xJU9q3pGjbW-84">
          <mxGeometry width="50" height="50" relative="1" as="geometry">
            <mxPoint x="80" y="160" as="sourcePoint" />
            <mxPoint x="80" y="80" as="targetPoint" />
          </mxGeometry>
        </mxCell>
        <mxCell id="_swf-YN51xJU9q3pGjbW-88" value="" style="endArrow=none;html=1;rounded=0;startArrow=oval;startFill=1;" edge="1" parent="_swf-YN51xJU9q3pGjbW-84">
          <mxGeometry width="50" height="50" relative="1" as="geometry">
            <mxPoint y="160" as="sourcePoint" />
            <mxPoint x="80" y="80" as="targetPoint" />
          </mxGeometry>
        </mxCell>
        <mxCell id="_swf-YN51xJU9q3pGjbW-89" value="" style="group" vertex="1" connectable="0" parent="1">
          <mxGeometry x="1220" y="80" width="80" height="160" as="geometry" />
        </mxCell>
        <mxCell id="_swf-YN51xJU9q3pGjbW-90" value="" style="endArrow=oval;html=1;rounded=0;startArrow=oval;startFill=1;endFill=1;" edge="1" parent="_swf-YN51xJU9q3pGjbW-89">
          <mxGeometry width="50" height="50" relative="1" as="geometry">
            <mxPoint x="80" as="sourcePoint" />
            <mxPoint x="80" y="80" as="targetPoint" />
          </mxGeometry>
        </mxCell>
        <mxCell id="_swf-YN51xJU9q3pGjbW-91" value="" style="endArrow=oval;html=1;rounded=0;startArrow=oval;startFill=1;endFill=1;" edge="1" parent="_swf-YN51xJU9q3pGjbW-89">
          <mxGeometry width="50" height="50" relative="1" as="geometry">
            <mxPoint y="160" as="sourcePoint" />
            <mxPoint x="80" y="160" as="targetPoint" />
          </mxGeometry>
        </mxCell>
        <mxCell id="_swf-YN51xJU9q3pGjbW-93" value="" style="endArrow=none;html=1;rounded=0;" edge="1" parent="_swf-YN51xJU9q3pGjbW-89">
          <mxGeometry width="50" height="50" relative="1" as="geometry">
            <mxPoint y="160" as="sourcePoint" />
            <mxPoint x="80" y="80" as="targetPoint" />
          </mxGeometry>
        </mxCell>
        <mxCell id="_swf-YN51xJU9q3pGjbW-96" value="&lt;font style=&quot;font-size: 24px;&quot;&gt;(a)&lt;/font&gt;" style="text;html=1;align=center;verticalAlign=middle;resizable=0;points=[];autosize=1;strokeColor=none;fillColor=none;" vertex="1" parent="1">
          <mxGeometry x="389" y="290" width="50" height="40" as="geometry" />
        </mxCell>
        <mxCell id="_swf-YN51xJU9q3pGjbW-102" value="&lt;font style=&quot;font-size: 24px;&quot;&gt;(b)&lt;/font&gt;" style="text;html=1;align=center;verticalAlign=middle;resizable=0;points=[];autosize=1;strokeColor=none;fillColor=none;" vertex="1" parent="1">
          <mxGeometry x="1036" y="290" width="50" height="40" as="geometry" />
        </mxCell>
      </root>
    </mxGraphModel>
  </diagram>
</mxfile>
